<svg xmlns="http://www.w3.org/2000/svg" viewBox="0 0 200 130">
  <rect width="200" height="130" fill="none"/>
  <!-- Left Puzzle Piece (Golden) -->
  <path fill="#E19B2B" d="M20,40 
    c0,-10 10,-20 20,-20 h40 
    a10,10 0 0 1 10,10 v15 
    a10,10 0 0 0 10,10 
    a10,10 0 0 1 -10,10 v15 
    a10,10 0 0 1 -10,10 h-40 
    c-10,0 -20,-10 -20,-20 v-30 
    z"/>
  <!-- Right Puzzle Piece (Reddish Brown) -->
  <path fill="#A3412E" d="M90,40 
    c0,-10 10,-20 20,-20 h40 
    a10,10 0 0 1 10,10 v10 
    a10,10 0 0 0 10,10 
    a10,10 0 0 1 -10,10 v10 
    a10,10 0 0 1 -10,10 h-40 
    c-10,0 -20,-10 -20,-20 v-30 
    z"/>
</svg>